<?xml version="1.0" encoding="UTF-8"?>
<svg id="Layer_2" data-name="Layer 2" xmlns="http://www.w3.org/2000/svg" viewBox="0 0 96.43 91.5">
  <defs>
    <style>
      .cls-1 {
        fill: #e2a620;
      }
    </style>
  </defs>
  <g id="Objects">
    <path class="cls-1" d="M.59,91.5h8.41c.32,0,.59-.27.59-.59v-3.78c1.9.03,4.38.04,7.19.02.29,0,.53-.24.53-.54,0-1.07.02-2.21.02-3.39l15.07-.03c.29,0,.52-.23.52-.52v-7.72s7.74-.07,7.74-.07l.17,15.19c0,.27.22.49.49.5l7.03.2c.29,0,.52-.24.51-.52l-.08-15.44c10.9-.11,20.41-.21,27.99-.3l14.27-.2,4.8-.12c.37-.02.57-.03.57-.28s-.2-.26-.58-.28l-4.8-.04h-14.27c-7.58.04-17.09.08-27.99.14l-.02-3.21h6.8c.16,0,.3-.06.41-.17.11-.11.17-.26.17-.41v-11.29c0-.32-.26-.57-.58-.57l-7.44-.04c-.15,0-.29.06-.4.17-.11.11-.16.25-.16.4l.09,10.74h-6.19s-.18-10.07-.18-10.07l-.21-9.35-.09-2.73c.17,0,.4-.02.4-.27s-.23-.26-.41-.27l-20.26-.16v-6.37s7.42.01,7.42.01c.15,0,.29-.06.39-.16.1-.1.16-.24.16-.39v-5.67c0-.31-.24-.56-.55-.56h-8c-.31,0-.57.25-.57.56v5.13s-3.28,0-3.28,0c-.02-8.43-.05-15.79-.08-21.77l-.09-12.56-.05-3.34-.03-.86c-.01-.31-.02-.53-.28-.53s-.26.21-.28.53l-.17,16.76c-.03,5.98-.06,13.34-.08,21.77l-12.11.02c-.14,0-.26.05-.36.15-.1.1-.15.22-.15.36l.02,7.33c0,.27.22.49.49.49h0l12.08-.05v7.78c-1.96-.01-4.02-.02-6.23-.03h0c-.13,0-.26.05-.36.15-.1.1-.15.22-.15.36-.02,5.39-.04,11.58-.06,18.35-1.13,0-2.23.01-3.27.02-.3,0-.54.25-.53.55.05,2.8.11,5.4.17,7.54H.59c-.16,0-.3.05-.41.16-.11.11-.17.26-.17.41v8.24c0,.33.26.59.59.59ZM4.94,85.72c.03.5.05.77.08.91v.05s.05.08.05.08c0,0,0,.01.01.02h0c.1.14.19.25,3.32.33v3.22s-7.24,0-7.24,0v-7.07s3.66,0,3.66,0h0c.04,1.06.07,1.9.1,2.48ZM8.41,86.26l-2.83.08c.01-.14.02-.32.03-.57.02-.56.04-1.39.06-2.45v-.09s2.75,0,2.75,0v3.03ZM8.43,75.11v6.99s-2.74,0-2.74,0c.02-2,.03-4.41.03-7,.87,0,1.78.01,2.71.02ZM20.71,34.5h6.87s0,4.55,0,4.55h-6.87s0-4.55,0-4.55ZM40.61,69.33h-7.7s0-6.37,0-6.37v-1.26s4.17,0,4.17,0c.32,0,.58-.26.58-.59v-9.92c0-.32-.26-.59-.59-.59h-9.58c-.32,0-.59.26-.59.59v4.04s-.56,0-.56,0c-1.6-.02-3.5-.03-5.63-.05v-7.83s10.22-.04,10.22-.04l5.35-.05,4.15-.05v2.72s.17,19.4.17,19.4ZM32.13,61.7c-.01.4-.02.82-.03,1.25-.04,1.82-.07,3.97-.1,6.37h-3.92s0-7.63,0-7.63h4.05ZM28.07,73.84v-3.33s3.91,0,3.91,0c-.01,1.06-.02,2.15-.03,3.31l-3.87.03ZM32.92,70.5h7.71s.04,3.25.04,3.25l-7.74.05v-3.3ZM41.49,70.5h6.18s.03,3.22.03,3.22l-6.15.04-.06-3.25ZM16.23,86.07l-6.65.16v-3s6.63-.01,6.63-.01c0,.99.01,1.94.02,2.86ZM15.37,61.52c.11.11.25.16.4.16h3.79s0,8.23,0,8.23c0,.32.27.59.59.59h6.78s0,3.92,0,3.92c0,.32.24.59.58.57l4.43-.04c-.02,2.24-.03,4.64-.05,7.19l-14.55-.03c.01-2.37.02-4.92.02-7.57,0-.33-.26-.59-.64-.59-2.51,0-4.9,0-7.16.02-.01-6.56-.03-12.57-.06-17.84,2.02,0,3.91-.02,5.71-.03v5.02c0,.15.05.29.16.4ZM16.2,82.11h-6.63s-.01-7-.01-7c2.09,0,4.31.02,6.62.02,0,2.44,0,4.79.02,6.98ZM26.92,69.33h-6.19s0-7.64,0-7.64h6.19s0,7.64,0,7.64ZM26.92,60.54h-6.19s0-4.48,0-4.48c2.13-.02,4.03-.03,5.63-.05h.56s0,4.53,0,4.53ZM32.8,55.38c-.11-.03-.26-.03-.46-.04-.28-.01-.69-.02-1.24-.04-.76-.02-1.77-.03-3.01-.05v-3.46s4.29,0,4.29,0h4.11s0,8.75,0,8.75h-3.57s.01-3.01.01-3.01l.06-2.12-.2-.03ZM32.4,55.91c-.08.54-.16,1.76-.24,4.63h-4.08s0-4.54,0-4.54c1.24-.02,2.25-.03,3.01-.05.54-.01.96-.02,1.24-.04.02,0,.05,0,.07,0ZM19.56,56.07v4.48s-3.22,0-3.22,0v-4.46s3.22-.02,3.22-.02ZM19.56,47.35v7.82s-3.24-.02-3.24-.02v-7.79s3.24-.01,3.24-.01ZM16.3,40.12h3.27s0,6.37,0,6.37h-3.25s-.02-6.37-.02-6.37ZM15.25,40.12l-.02,6.36-11.6-.05.02-6.33,11.59.02ZM48.71,59.16l6.29.04v10.14s-6.24,0-6.24,0l-.05-10.18ZM47.71,74.81l.12,14.91-5.99-.15-.27-14.7,6.14-.06Z"/>
  </g>
</svg>