<?xml version="1.0" encoding="UTF-8"?>
<svg id="Layer_2" data-name="Layer 2" xmlns="http://www.w3.org/2000/svg" viewBox="0 0 195.03 39.01">
  <defs>
    <style>
      .cls-1 {
        fill: #e2a620;
      }
    </style>
  </defs>
  <g id="Objects">
    <path class="cls-1" d="M0,12.52h18.12v6.18h34.73v7.78h-10.89v12.52h12.53v-11.48h81.94v10.89h12.53v-12.53h-10.89v-7.19h28.84v-6.47h28.12v-1.34h-28.12v-3.7h-1.34v3.7h-27.79V0h-12.53v12.52h11.48v4.84H54.19v-4.54h10.59V.29h-12.52v10.89H19.46v-4.58h-1.34v4.58H0v1.34ZM136.42,1.34v9.84h-9.84V1.34h9.84ZM138.06,17.36v-5.13h27.5v5.13h-27.5ZM43.3,37.67v-9.84h9.84v9.84h-9.84ZM136.42,25.9v.29H54.19v-7.49h82.53v7.19h-.29ZM147.61,37.08h-9.84v-9.55h.29v-.29h9.55v9.84ZM63.44,1.64v9.84h-9.25v-.29h-.59V1.64h9.84ZM52.85,12.82v4.54H19.46v-4.84h32.8v.3h.59Z"/>
  </g>
</svg>