<?xml version="1.0" encoding="UTF-8"?>
<svg id="Layer_2" data-name="Layer 2" xmlns="http://www.w3.org/2000/svg" viewBox="0 0 70.12 138.63">
  <defs>
    <style>
      .cls-1 {
        fill: none;
        stroke: #995817;
        stroke-linecap: round;
        stroke-linejoin: round;
      }
    </style>
  </defs>
  <g id="OBJECTS">
    <g>
      <line class="cls-1" x1="55.07" y1="6.6" x2="51.48" y2="6.6"/>
      <line class="cls-1" x1="69.62" y1="6.6" x2="65.76" y2="6.6"/>
      <line class="cls-1" x1="62.21" y1="6.6" x2="58.62" y2="6.6"/>
      <line class="cls-1" x1="2.81" y1="53.52" x2="2.81" y2="49.94"/>
      <line class="cls-1" x1="2.81" y1="138.13" x2="2.81" y2="64.23"/>
      <line class="cls-1" x1="2.81" y1="60.67" x2="2.81" y2="57.09"/>
      <path class="cls-1" d="M2.88,46.39C4.11,24.21,22.48,6.6,44.97,6.6h2.95"/>
      <g>
        <path class="cls-1" d="M8.39,9.09c-3.84,9.26,2.1,15.93,2.1,15.93,0,0,4.01-7.98-2.1-15.93Z"/>
        <path class="cls-1" d="M26.32,24.4c-8.8-4.81-16.07.39-16.07.39,0,0,7.51,4.84,16.07-.39Z"/>
        <path class="cls-1" d="M15.25,5.34c-2.99,7.2,1.63,12.39,1.63,12.39,0,0,3.12-6.21-1.63-12.39Z"/>
        <path class="cls-1" d="M29.2,17.25c-6.84-3.74-12.5.31-12.5.31,0,0,5.84,3.76,12.5-.31Z"/>
        <path class="cls-1" d="M24.16.79c-3.98,6.12-.61,11.68-.61,11.68,0,0,3.93-5.18.61-11.68Z"/>
        <path class="cls-1" d="M34.97,14.12c-5.66-4.61-11.55-1.84-11.55-1.84,0,0,4.74,4.46,11.55,1.84Z"/>
        <path class="cls-1" d="M32.22.5c-3.32,4.34-1.12,8.68-1.12,8.68,0,0,3.23-3.64,1.12-8.68Z"/>
        <path class="cls-1" d="M39.52,11.06c-3.96-3.76-8.51-2.04-8.51-2.04,0,0,3.28,3.6,8.51,2.04Z"/>
        <path class="cls-1" d="M39.47.56c-2.75,3.09-1.33,6.49-1.33,6.49,0,0,2.64-2.57,1.33-6.49Z"/>
        <path class="cls-1" d="M44.38,8.95c-2.78-3.06-6.31-2.02-6.31-2.02,0,0,2.27,2.9,6.31,2.02Z"/>
        <path class="cls-1" d="M1.12,19.48c-2.64,9.67,4.09,15.54,4.09,15.54,0,0,2.97-8.43-4.09-15.54Z"/>
        <path class="cls-1" d="M20.84,32.4c-9.34-3.66-15.89,2.42-15.89,2.42,0,0,8.06,3.85,15.89-2.42Z"/>
      </g>
      <path class="cls-1" d="M51.48,6.6c0,.98-.8,1.78-1.78,1.78s-1.78-.8-1.78-1.78.8-1.78,1.78-1.78,1.78.8,1.78,1.78Z"/>
      <path class="cls-1" d="M58.62,6.6c0,.98-.8,1.78-1.78,1.78s-1.78-.8-1.78-1.78.8-1.78,1.78-1.78,1.78.8,1.78,1.78Z"/>
      <path class="cls-1" d="M65.76,6.6c0,.98-.8,1.78-1.78,1.78s-1.78-.8-1.78-1.78.8-1.78,1.78-1.78,1.78.8,1.78,1.78Z"/>
      <path class="cls-1" d="M2.81,49.94c-.98,0-1.78-.8-1.78-1.78s.8-1.78,1.78-1.78,1.78.8,1.78,1.78-.8,1.78-1.78,1.78Z"/>
      <path class="cls-1" d="M2.81,57.08c-.98,0-1.78-.8-1.78-1.78s.8-1.78,1.78-1.78,1.78.8,1.78,1.78-.8,1.78-1.78,1.78Z"/>
      <path class="cls-1" d="M2.81,64.23c-.98,0-1.78-.8-1.78-1.78s.8-1.78,1.78-1.78,1.78.8,1.78,1.78-.8,1.78-1.78,1.78Z"/>
    </g>
  </g>
</svg>