<?xml version="1.0" encoding="UTF-8"?>
<svg id="Layer_2" data-name="Layer 2" xmlns="http://www.w3.org/2000/svg" viewBox="0 0 70.12 138.63">
  <defs>
    <style>
      .cls-1 {
        fill: none;
        stroke: #995817;
        stroke-linecap: round;
        stroke-linejoin: round;
      }
    </style>
  </defs>
  <g id="OBJECTS">
    <g>
      <line class="cls-1" x1="15.06" y1="132.03" x2="18.64" y2="132.03"/>
      <line class="cls-1" x1=".5" y1="132.03" x2="4.36" y2="132.03"/>
      <line class="cls-1" x1="7.92" y1="132.03" x2="11.5" y2="132.03"/>
      <line class="cls-1" x1="67.31" y1="85.11" x2="67.31" y2="88.7"/>
      <line class="cls-1" x1="67.31" y1=".5" x2="67.31" y2="74.41"/>
      <line class="cls-1" x1="67.31" y1="77.96" x2="67.31" y2="81.55"/>
      <path class="cls-1" d="M67.25,92.24c-1.23,22.19-19.6,39.79-42.1,39.79h-2.95"/>
      <g>
        <path class="cls-1" d="M61.74,129.55c3.84-9.26-2.1-15.93-2.1-15.93,0,0-4.01,7.98,2.1,15.93Z"/>
        <path class="cls-1" d="M43.8,114.24c8.8,4.81,16.07-.39,16.07-.39,0,0-7.51-4.84-16.07.39Z"/>
        <path class="cls-1" d="M54.87,133.29c2.99-7.2-1.63-12.39-1.63-12.39,0,0-3.12,6.21,1.63,12.39Z"/>
        <path class="cls-1" d="M40.92,121.39c6.84,3.74,12.5-.31,12.5-.31,0,0-5.84-3.76-12.5.31Z"/>
        <path class="cls-1" d="M45.97,137.85c3.98-6.12.61-11.68.61-11.68,0,0-3.93,5.18-.61,11.68Z"/>
        <path class="cls-1" d="M35.15,124.52c5.66,4.61,11.55,1.84,11.55,1.84,0,0-4.74-4.46-11.55-1.84Z"/>
        <path class="cls-1" d="M37.9,138.13c3.32-4.33,1.12-8.68,1.12-8.68,0,0-3.23,3.64-1.12,8.68Z"/>
        <path class="cls-1" d="M30.6,127.57c3.96,3.76,8.51,2.04,8.51,2.04,0,0-3.28-3.6-8.51-2.04Z"/>
        <path class="cls-1" d="M30.66,138.07c2.75-3.09,1.33-6.49,1.33-6.49,0,0-2.64,2.57-1.33,6.49Z"/>
        <path class="cls-1" d="M25.74,129.69c2.78,3.06,6.31,2.02,6.31,2.02,0,0-2.27-2.9-6.31-2.02Z"/>
        <path class="cls-1" d="M69.01,119.16c2.64-9.67-4.09-15.54-4.09-15.54,0,0-2.97,8.43,4.09,15.54Z"/>
        <path class="cls-1" d="M49.28,106.23c9.34,3.66,15.89-2.42,15.89-2.42,0,0-8.06-3.85-15.89,2.42Z"/>
      </g>
      <path class="cls-1" d="M18.64,132.04c0-.98.8-1.78,1.78-1.78s1.78.8,1.78,1.78-.8,1.78-1.78,1.78-1.78-.8-1.78-1.78Z"/>
      <path class="cls-1" d="M11.5,132.04c0-.98.8-1.78,1.78-1.78s1.78.8,1.78,1.78-.8,1.78-1.78,1.78-1.78-.8-1.78-1.78Z"/>
      <path class="cls-1" d="M4.36,132.04c0-.98.8-1.78,1.78-1.78s1.78.8,1.78,1.78-.8,1.78-1.78,1.78-1.78-.8-1.78-1.78Z"/>
      <path class="cls-1" d="M67.32,88.69c.98,0,1.78.8,1.78,1.78s-.8,1.78-1.78,1.78-1.78-.8-1.78-1.78.8-1.78,1.78-1.78Z"/>
      <path class="cls-1" d="M67.32,81.55c.98,0,1.78.8,1.78,1.78s-.8,1.78-1.78,1.78-1.78-.8-1.78-1.78.8-1.78,1.78-1.78Z"/>
      <path class="cls-1" d="M67.32,74.41c.98,0,1.78.8,1.78,1.78s-.8,1.78-1.78,1.78-1.78-.8-1.78-1.78.8-1.78,1.78-1.78Z"/>
    </g>
  </g>
</svg>