<?xml version="1.0" encoding="UTF-8"?>
<svg id="Layer_2" data-name="Layer 2" xmlns="http://www.w3.org/2000/svg" viewBox="0 0 95.66 91.5">
  <defs>
    <style>
      .cls-1 {
        fill: #e2a620;
      }
    </style>
  </defs>
  <g id="Objects">
    <path class="cls-1" d="M95.09,16.55l-18.85-.1c-7.44,0-16.76,0-27.44.01l.08-15.22c0-.29-.27-.52-.53-.5l-7.01.2c-.27,0-.48.23-.49.5l-.17,15.04-7.75.02v-7.66c0-.29-.23-.52-.51-.52h0l-15.07-.03c0-1.18-.01-2.32-.02-3.4,0-.29-.24-.53-.54-.53-2.81-.02-5.29,0-7.2.02V.59c0-.32-.26-.59-.58-.59H.59c-.16,0-.31.06-.42.17C.06.28,0,.43,0,.59v8.25c0,.32.27.58.59.58h4.21c-.06,2.14-.12,4.74-.17,7.53,0,.3.24.54.54.55,1.03,0,2.13.02,3.26.02.01,6.77.03,12.96.06,18.35,0,.28.23.5.51.5h0c2.21,0,4.27-.02,6.22-.03v7.78s-12.07-.05-12.07-.05h0c-.27,0-.49.22-.49.49l-.02,7.33c0,.14.05.26.15.36.1.1.22.15.36.15h0l12.11.02c.02,8.42.05,15.78.08,21.77l.07,9.41.06,5.41.04,1.94c.01.31.02.53.28.53s.26-.21.28-.53l.17-16.76c.03-5.98.06-13.34.08-21.76h3.27s0,5.13,0,5.13c0,.15.06.29.17.4.11.11.25.17.4.17h8c.31,0,.56-.26.56-.57v-5.67c0-.3-.26-.55-.56-.55h-7.43s0-6.36,0-6.36l10.23-.04,6.83-.06,3.2-.06c.17,0,.41-.02.41-.27s-.22-.26-.4-.27l.49-22.14h6.19s-.09,10.75-.09,10.75c0,.31.26.56.56.56h0l7.43-.04c.31,0,.57-.26.57-.57v-11.29c0-.32-.25-.58-.57-.58h-6.8s.02-3.46.02-3.46c10.69-.06,20.01-.13,27.45-.19l13.78-.14,4.09-.07.98-.03c.37-.02.57-.03.57-.28s-.2-.26-.57-.28ZM47.83,1.78l-.12,14.68h-6.14s.27-14.53.27-14.53l5.99-.15ZM55,32.3l-6.29.04.05-10.18h6.23s0,10.13,0,10.13ZM28.08,22.17h3.92c.03,2.41.07,4.55.1,6.37,0,.44.02.85.03,1.25h-4.05s0-7.63,0-7.63ZM40.44,44.29l-19.73-.14v-7.83c2.14-.02,4.03-.03,5.63-.05h.56s0,4.03,0,4.03c0,.32.26.59.59.59h9.58c.32,0,.59-.26.59-.59v-9.92c0-.32-.27-.58-.59-.58h-4.16s0-1.26,0-1.26v-6.37s7.7,0,7.7,0l-.12,10.8-.06,8.6v2.72ZM20.71,57v-4.56s6.87.01,6.87.01v4.55s-6.87,0-6.87,0ZM16.23,5.42c0,.91-.01,1.87-.02,2.86h-6.63s0-3.02,0-3.02l6.65.16ZM26.35,35.48c-1.6-.02-3.5-.03-5.63-.05v-4.48s6.2,0,6.2,0v4.53s-.57,0-.57,0ZM26.92,22.17v7.63s-6.2,0-6.2,0v-7.64s6.2,0,6.2,0ZM15.21,35.4c-1.79,0-3.69-.02-5.71-.03.02-5.27.04-11.28.05-17.84,2.25.01,4.65.02,7.21.02.33,0,.59-.26.59-.59,0-2.65,0-5.2-.02-7.57l14.55-.03c.01,2.53.03,4.91.05,7.14h-4.44c-.32.01-.57.27-.57.59v3.91s-6.79,0-6.79,0c-.32,0-.59.26-.59.59v8.23s-3.78,0-3.78,0c-.31,0-.56.25-.56.57v5.02ZM9.56,16.38v-6.98s6.64-.01,6.64-.01c-.01,2.19-.02,4.54-.02,6.98-2.31,0-4.53,0-6.62.02ZM3.64,45.06l11.59-.04.02,6.36-11.59.02-.02-6.33ZM16.33,35.4v-4.46s3.23,0,3.23,0v4.48s-3.23-.02-3.23-.02ZM16.31,44.13v-7.79s3.25-.02,3.25-.02v7.82s-3.25-.01-3.25-.01ZM19.57,51.37h-3.27s.02-6.35.02-6.35h3.25s0,6.35,0,6.35ZM32.33,35.59c-.28-.01-.7-.03-1.24-.04-.76-.02-1.77-.03-3.01-.05v-4.55s4.08,0,4.08,0c.08,2.87.16,4.09.24,4.63-.02,0-.05,0-.07,0ZM31.09,36.2c.54-.01.96-.02,1.24-.04.21,0,.36-.02.47-.04l.61-.1-.43-.29-.05-4.77h3.57s0,8.75,0,8.75h-8.4v-3.46c1.24-.02,2.25-.03,3-.05ZM47.7,17.55l-.03,3.45h-6.18s.06-3.42.06-3.42l6.15-.03ZM40.66,17.59l-.04,3.41h-7.71s0-3.37,0-3.37l7.74-.04ZM31.98,20.99h-3.91s0-3.34,0-3.34l3.87-.02c.01,1.17.02,2.28.04,3.36ZM5.69,9.41h2.73s.01,6.98.01,6.98c-.94,0-1.84.01-2.71.02,0-2.62,0-5.03-.03-7ZM8.42,8.26h-2.74s0-.1,0-.1c-.02-1.06-.04-1.89-.06-2.44-.01-.25-.02-.43-.03-.57l2.83.08v3.03ZM5.03,4.88c-.03.15-.05.41-.08.9-.03.58-.07,1.42-.1,2.48h0s-3.66,0-3.66,0V1.18s7.24,0,7.24,0v3.22c-3.13.08-3.22.19-3.32.33h0s-.01.02-.02.03l-.05.08v.04Z"/>
  </g>
</svg>