<?xml version="1.0" encoding="UTF-8"?>
<svg id="Layer_2" data-name="Layer 2" xmlns="http://www.w3.org/2000/svg" viewBox="0 0 195.03 39.01">
  <defs>
    <style>
      .cls-1 {
        fill: #e2a620;
      }
    </style>
  </defs>
  <g id="Objects">
    <path class="cls-1" d="M195.03,26.49h-18.12v-6.18h-34.73v-7.78h10.89V0h-12.53v11.48H58.6V.59h-12.53v12.53h10.89v7.19h-28.84v6.47H0v1.34h28.12v3.7h1.34v-3.7h27.79v10.89h12.53v-12.52h-11.48v-4.84h82.53v4.54h-10.59v12.53h12.52v-10.89h32.8v4.58h1.34v-4.58h18.12v-1.34ZM58.6,37.67v-9.84h9.84v9.84h-9.84ZM56.97,21.65v5.13h-27.5v-5.13h27.5ZM151.73,1.34v9.84h-9.84V1.34h9.84ZM58.6,13.11v-.29h82.24v7.49H58.31v-7.19h.29ZM47.42,1.93h9.84v9.55h-.29v.29h-9.55V1.93ZM131.59,37.38v-9.84h9.25v.29h.59v9.55h-9.84ZM142.18,26.19v-4.54h33.38v4.84h-32.8v-.3h-.59Z"/>
  </g>
</svg>