<?xml version="1.0" encoding="UTF-8"?>
<svg id="Layer_2" data-name="Layer 2" xmlns="http://www.w3.org/2000/svg" viewBox="0 0 208.33 7.73">
  <defs>
    <style>
      .cls-1 {
        fill: #eab978;
      }
    </style>
  </defs>
  <g id="Objects">
    <g>
      <g>
        <path class="cls-1" d="M74.9,2.54c1.44-1.61,3.67-2.43,5.84-2.46,1.1-.03,2.18.11,3.26.36,1.07.27,2.1.73,3.03,1.3,1.89,1.13,3.46,2.59,5.22,3.74,1.72,1.19,3.72,1.95,5.87,2.13-1.07.1-2.17.02-3.23-.25-1.06-.28-2.07-.73-3.02-1.27-1.89-1.11-3.49-2.55-5.26-3.65-1.74-1.13-3.76-1.82-5.87-1.86-2.07-.05-4.24.51-5.84,1.96Z"/>
        <path class="cls-1" d="M110.94,7.61c-2.15.06-4.28-.61-6.11-1.74-1.85-1.1-3.47-2.53-5.3-3.6-1.79-1.11-3.88-1.7-5.97-1.66-2.06,0-4.2.72-5.59,2.15l-.11.12h-.14l-21.13.08-21.13-.02c-7.04,0-16.18-.05-23.23-.12-7.04-.04-14.09-.18-21.13-.28,7.04-.1,14.09-.24,21.13-.28,7.04-.07,16.18-.12,23.23-.12l21.13-.02,21.13.08-.25.12c1.65-1.63,3.91-2.28,6.1-2.27,2.19,0,4.37.66,6.19,1.85,1.83,1.16,3.39,2.64,5.19,3.79,1.77,1.17,3.85,1.9,6,1.92Z"/>
        <path class="cls-1" d="M80.29,2.54l-55.97.3h-.12l-.1-.1c-1.42-1.42-3.57-2.1-5.62-2.08-2.09-.02-4.12.66-5.86,1.79-1.75,1.13-3.39,2.52-5.26,3.66-.95.54-1.96.99-3.02,1.26-1.06.27-2.16.35-3.23.25,2.15-.19,4.14-.95,5.86-2.14,1.78-1.11,3.31-2.64,5.22-3.73.94-.56,1.96-1.03,3.03-1.32C16.29.18,17.37-.02,18.48,0c2.2.01,4.46.7,6.07,2.34l-.23-.11,55.97.3Z"/>
        <path class="cls-1" d="M3.15,2.55s-.68.8-1.53.8S.1,2.55.1,2.55c0,0,.68-.8,1.52-.8s1.53.8,1.53.8Z"/>
        <path class="cls-1" d="M1.21,7.67s-1.61-.15-1.12-1.27c.5-1.12,2.81,1.17,4.67.54,0,0-.96,1.06-3.55.73Z"/>
      </g>
      <g>
        <path class="cls-1" d="M133.43,2.54c-1.6-1.45-3.78-2-5.85-1.96-2.11.03-4.12.73-5.87,1.86-1.77,1.11-3.37,2.54-5.26,3.65-.95.54-1.96.99-3.02,1.27-1.06.27-2.16.35-3.23.25,2.14-.19,4.14-.94,5.87-2.13,1.75-1.14,3.33-2.61,5.22-3.74.94-.57,1.96-1.02,3.03-1.3,1.08-.25,2.16-.4,3.26-.36,2.17.03,4.41.85,5.84,2.46Z"/>
        <path class="cls-1" d="M97.39,7.61c2.15-.02,4.23-.75,6-1.92,1.79-1.15,3.35-2.63,5.19-3.79,1.82-1.19,4-1.85,6.19-1.85,2.19-.02,4.45.63,6.1,2.27l-.25-.12,21.13-.08,21.13.02c7.04,0,16.19.05,23.23.12,7.04.04,14.09.18,21.13.28-7.04.1-14.09.24-21.13.28-7.04.07-16.19.12-23.23.12l-21.13.02-21.13-.08h-.14l-.11-.12c-1.39-1.43-3.54-2.15-5.59-2.15-2.09-.03-4.17.55-5.97,1.66-1.82,1.07-3.45,2.5-5.3,3.6-1.83,1.13-3.97,1.79-6.11,1.74Z"/>
        <path class="cls-1" d="M128.04,2.54l55.97-.3-.23.11C185.4.7,187.66.01,189.86,0c1.11-.02,2.19.17,3.27.42,1.07.28,2.09.76,3.03,1.32,1.91,1.09,3.45,2.62,5.22,3.73,1.72,1.19,3.71,1.95,5.86,2.14-1.07.1-2.17.02-3.23-.25-1.06-.27-2.07-.72-3.02-1.26-1.87-1.14-3.51-2.52-5.26-3.66-1.74-1.13-3.77-1.8-5.87-1.79-2.05-.02-4.2.66-5.62,2.08l-.11.1h-.12l-55.97-.3Z"/>
        <path class="cls-1" d="M205.18,2.55s.68.8,1.53.8,1.52-.8,1.52-.8c0,0-.68-.8-1.52-.8s-1.53.8-1.53.8Z"/>
        <path class="cls-1" d="M207.12,7.67s1.61-.15,1.12-1.27c-.49-1.12-2.81,1.17-4.67.54,0,0,.96,1.06,3.55.73Z"/>
      </g>
    </g>
  </g>
</svg>