<svg xmlns="http://www.w3.org/2000/svg" viewBox="0 0 100 100" fill="none">
  <!-- Minimalist, elegant continuous line art logo of a Tree of Life -->
  
  <g stroke="#D4AF37" stroke-width="1.8" stroke-linecap="round" stroke-linejoin="round">
    <!-- Outer Circle -->
    <circle cx="50" cy="50" r="45" />

    <!-- Horizontal ground arc at bottom intersecting the circle -->
    <path d="M 18.5 82 A 45 45 0 0 1 81.5 82" />
    
    <!-- Central intertwining trunk flowing upwards -->
    <!-- Trunk Left piece starting from right side of the base, curving left, crossing center -->
    <path d="M 55 82 C 60 65 30 55 45 35 C 55 20 20 25 10 35" />
    <!-- Trunk Right piece starting from left side of the base, curving right, crossing center -->
    <path d="M 45 82 C 40 65 70 55 55 35 C 45 20 80 25 90 35" />

    <!-- Center sprout from intertwine -->
    <path d="M 50 49 C 50 35 45 20 50 10" />

    <!-- Lower branches springing from the twists -->
    <path d="M 42 61 C 25 60 15 65 8 72" />
    <path d="M 58 61 C 75 60 85 65 92 72" />

    <!-- Mid branches -->
    <path d="M 50 49 C 30 45 15 50 8 60" />
    <path d="M 50 49 C 70 45 85 50 92 60" />

    <path d="M 47 31 C 30 25 15 35 15 45" />
    <path d="M 53 31 C 70 25 85 35 85 45" />

    <!-- Upper small branches -->
    <path d="M 48 18 C 35 10 25 15 25 25" />
    <path d="M 52 18 C 65 10 75 15 75 25" />

    <!-- Roots branching downwards from ground line -->
    <path d="M 50 82 L 40 94" />
    <path d="M 50 82 L 60 94" />
    <path d="M 50 82 L 50 95" />
  </g>

  <!-- Pointed Leaves & Bud Dots in gold -->
  <g fill="#D4AF37">
    <!-- Top center -->
    <path d="M 50 6 Q 47 11 50 16 Q 53 11 50 6" />
    <!-- Center lower -->
    <path d="M 50 35 Q 47 40 50 45 Q 53 40 50 35" />
    
    <!-- Upper layer -->
    <path d="M 33 11 Q 30 16 35 20 Q 38 15 33 11" />
    <path d="M 67 11 Q 70 16 65 20 Q 62 15 67 11" />

    <!-- Mid layer -->
    <path d="M 23 23 Q 20 28 27 32 Q 30 27 23 23" />
    <path d="M 77 23 Q 80 28 73 32 Q 70 27 77 23" />
    
    <!-- Side layer -->
    <path d="M 12 36 Q 10 41 17 44 Q 19 39 12 36" />
    <path d="M 88 36 Q 90 41 83 44 Q 81 39 88 36" />
    
    <!-- Lower layer -->
    <path d="M 15 56 Q 12 61 20 63 Q 23 58 15 56" />
    <path d="M 85 56 Q 88 61 80 63 Q 77 58 85 56" />

    <!-- Circular Dots along the branches -->
    <circle cx="43" cy="18" r="1.5" />
    <circle cx="57" cy="18" r="1.5" />

    <circle cx="34" cy="30" r="1.5" />
    <circle cx="66" cy="30" r="1.5" />

    <circle cx="21" cy="42" r="1.5" />
    <circle cx="79" cy="42" r="1.5" />

    <circle cx="28" cy="55" r="1.5" />
    <circle cx="72" cy="55" r="1.5" />

    <circle cx="20" cy="70" r="1.5" />
    <circle cx="80" cy="70" r="1.5" />
  </g>
</svg>
